<svg xmlns="http://www.w3.org/2000/svg" viewBox="0 0 64 64" width="64" height="64" role="img" aria-label="swiftmap">
  <title>swiftmap</title>
  <g stroke="currentColor" stroke-width="0.7" opacity="0.26">
    <line x1="6" y1="21" x2="58" y2="21"/>
    <line x1="6" y1="43" x2="58" y2="43"/>
  </g>
  <g fill="currentColor">
    <circle cx="39.78" cy="13.22" r="1.6"/>
    <circle cx="36.21" cy="10.84" r="2.2"/>
    <circle cx="32" cy="10" r="2.7"/>
    <circle cx="27.79" cy="10.84" r="2.9"/>
    <circle cx="24.22" cy="13.22" r="3"/>
    <circle cx="21.84" cy="16.79" r="3"/>
    <circle cx="21" cy="21" r="3"/>
    <circle cx="21.84" cy="25.21" r="3"/>
    <circle cx="24.22" cy="28.78" r="3"/>
    <circle cx="27.79" cy="31.16" r="3"/>
    <circle cx="32" cy="32" r="3"/>
    <circle cx="36.21" cy="32.84" r="3"/>
    <circle cx="39.78" cy="35.22" r="3"/>
    <circle cx="42.16" cy="38.79" r="3"/>
    <circle cx="43" cy="43" r="3"/>
    <circle cx="42.16" cy="47.21" r="3"/>
    <circle cx="39.78" cy="50.78" r="2.9"/>
    <circle cx="36.21" cy="53.16" r="2.7"/>
    <circle cx="32" cy="54" r="2.2"/>
    <circle cx="27.79" cy="53.16" r="1.9"/>
    <circle cx="24.22" cy="50.78" r="1.6"/>
  </g>
</svg>
